<?xml version="1.0" encoding="utf-8"?>
<!-- Generator: Adobe Illustrator 27.8.1, SVG Export Plug-In . SVG Version: 6.00 Build 0)  -->
<svg version="1.1" id="Layer_1" xmlns="http://www.w3.org/2000/svg" xmlns:xlink="http://www.w3.org/1999/xlink" x="0px" y="0px"
	 viewBox="0 0 49 59" style="enable-background:new 0 0 49 59;" xml:space="preserve">
<g>
	<path d="M26.1,1.5c-2.7,0-5,1.9-5.6,4.4c-0.7-0.3-1.4-0.5-2.2-0.5c-3.2,0-5.9,2.7-5.9,5.9v21.1l-1.7-1.7c-2.3-2.3-6.1-2.3-8.4,0
		S0,36.7,2.3,39l13.3,13.3c2.3,2.3,5.5,4.1,9.3,4.1H34c7.6,0,13.8-6.2,13.8-13.8V19.1c0-3.2-2.7-5.9-5.9-5.9c-0.7,0-1.3,0.1-2,0.4
		v-2.3c0-3.2-2.7-5.9-5.9-5.9c-0.8,0-1.5,0.2-2.2,0.5C31.1,3.4,28.9,1.5,26.1,1.5z M26.1,5.4c1.1,0,2,0.9,2,2V27H32V11.3
		c0-1.1,0.9-2,2-2s2,0.9,2,2V27h3.9v-7.9c0-1.1,0.9-2,2-2c1.1,0,2,0.9,2,2v23.6c0,5.4-4.4,9.8-9.8,9.8h-9.1c-2.5,0-4.7-1.2-6.4-3
		L5.1,36.3c-0.8-0.8-0.8-2,0-2.8c0.8-0.8,2-0.8,2.8,0l5,5.1l3.4,3.4V11.3c0-1.1,0.9-2,2-2c1.1,0,2,0.9,2,2V27h3.9V7.3
		C24.2,6.2,25,5.4,26.1,5.4z"/>
</g>
</svg>
