<?xml version="1.0" encoding="utf-8"?>
<!-- Generator: Adobe Illustrator 27.8.1, SVG Export Plug-In . SVG Version: 6.00 Build 0)  -->
<svg version="1.1" id="Layer_1" xmlns="http://www.w3.org/2000/svg" xmlns:xlink="http://www.w3.org/1999/xlink" x="0px" y="0px"
	 viewBox="0 0 48 48" style="enable-background:new 0 0 48 48;" xml:space="preserve">
<path d="M22.9,2.6c-2.2,0-4.1,1.1-5.2,2.9c-0.9-0.5-1.9-0.8-3-0.8c-3.4,0-6.1,2.8-6.1,6.1v7.5l-4.3,5.5C1.7,27,1.9,31.9,4.7,35.1
	l4.8,5.5c2.7,3.1,6.6,4.8,10.7,4.8H31c7.9,0,14.3-6.4,14.3-14.3V12.8c0-3.4-2.8-6.1-6.1-6.1c-1.1,0-2.1,0.3-3,0.8
	c-1.1-1.7-3-2.9-5.2-2.9c-1.1,0-2.1,0.3-3,0.8C26.9,3.7,25,2.6,22.9,2.6z M22.9,6.6c1.2,0,2,0.9,2,2v6.1H29v-4.1c0-1.2,0.9-2,2-2
	s2,0.9,2,2v4.1h4.1v-2c0-1.2,0.9-2,2-2c1.2,0,2,0.9,2,2v18.4c0,5.7-4.5,10.2-10.2,10.2H20.3c-2.9,0-5.7-1.2-7.7-3.4l-4.8-5.5
	c-1.5-1.8-1.6-4.3-0.2-6.1l1-1.3v2.2h4.1V10.7c0-1.2,0.9-2,2-2s2,0.9,2,2v4.1h4.1V8.7C20.8,7.5,21.7,6.6,22.9,6.6z"/>
</svg>
