<?xml version="1.0" encoding="utf-8"?>
<!-- Generator: Adobe Illustrator 27.8.1, SVG Export Plug-In . SVG Version: 6.00 Build 0)  -->
<svg version="1.1" id="Layer_1" xmlns="http://www.w3.org/2000/svg" xmlns:xlink="http://www.w3.org/1999/xlink" x="0px" y="0px"
	 viewBox="0 0 83 51" style="enable-background:new 0 0 83 51;" xml:space="preserve">
<style type="text/css">
	.st0{fill:#FFFFFF;}
	.st1{fill:#FF3B00;}
</style>
<g>
	<path class="st0" d="M1,1.6h4.4c3.5,0,5.3,1.5,5.3,4.3c0,1.4-0.4,2.3-1.2,3l1.3,5H6.5l-0.7-3.8l-0.6,0v3.7H1V1.6z M5.7,7.4
		c0.6,0,1-0.4,1-1c0-0.6-0.4-1-1-1s-1,0.4-1,1C4.7,7,5.1,7.4,5.7,7.4z"/>
	<path class="st0" d="M10.9,8.7c0-2.9,2-5.1,4.8-5.1s4.8,2.2,4.8,5.1c0,3.2-1.9,5.4-4.8,5.4C12.9,14.1,10.9,11.9,10.9,8.7z
		 M15.8,10.2c0.6,0,0.9-0.6,0.9-1.4s-0.3-1.3-0.9-1.3c-0.6,0-0.9,0.5-0.9,1.3S15.2,10.2,15.8,10.2z"/>
	<path class="st0" d="M20.8,8.8c0-3,1.7-5.2,4.6-5.2c0.8,0,1.6,0,2.2,0v4.2h-1.6c-0.6,0-1,0.3-1,1c0,0.6,0.4,0.9,1,0.9h1.6v4.2
		c-0.2,0-1.7,0-2.1,0C22.6,13.9,20.8,11.7,20.8,8.8z"/>
	<path class="st0" d="M28.1,1H32v6.7l1.1-4h4.3l-2,4.4l1.9,5.8h-4l-0.9-3.7L32,13.9h-4V1z"/>
	<path class="st1" d="M1,18.6h4.2c3.6,0,5.4,1.6,5.4,4.4c0,3.1-1.7,4.7-4.8,4.7H5.3v3.2H1V18.6z M5.7,24.3c0.6,0,1-0.4,1-1
		c0-0.6-0.4-1-1-1s-1,0.4-1,1C4.7,23.9,5.1,24.3,5.7,24.3z"/>
	<path class="st1" d="M10.7,26.9c0-2.1,1.4-3.7,3.6-4L13,20.7h5l1.6,2.8v7.3c-1.4,0-3,0-4.1,0C12.3,30.9,10.7,29.5,10.7,26.9z
		 M15.5,27.7c0.5,0,1-0.5,1-1c0-0.6-0.5-1-1-1c-0.5,0-1,0.4-1,1C14.5,27.3,14.9,27.7,15.5,27.7z"/>
	<path class="st1" d="M23.9,20.7c3.3,0,5.4,1.5,5.4,5.1c0,3-1.7,4.7-5,4.7h-0.3v3.1h-3.9V20.7C20.4,20.7,23.3,20.7,23.9,20.7z
		 M24.7,26.7c0.5,0,1-0.5,1-1c0-0.6-0.5-1-1-1c-0.5,0-1,0.4-1,1C23.7,26.2,24.1,26.7,24.7,26.7z"/>
	<path class="st1" d="M29.6,25.7c0-2.9,2-5.1,4.9-5.1c2.4,0,4.1,1.5,4.5,3.9l-3.8,2.4l3.4,0v3.9h-4.2C31.6,30.9,29.6,28.7,29.6,25.7
		z M34.2,25.8c0.5,0,0.9-0.4,0.9-0.9c0-0.5-0.4-0.9-0.9-0.9s-0.9,0.4-0.9,0.9C33.2,25.4,33.7,25.8,34.2,25.8z"/>
	<path class="st1" d="M39.3,20.7h6.1v3.8h-2.2v6.3h-3.9V20.7z"/>
	<path class="st0" d="M1,44h2.1h1.4c-0.3-0.3-0.5-0.6-0.8-0.8C1.9,41.3,1,40.3,1,38.7c0-2.3,1.7-3.1,4.1-3.1h3.6v3.8H6.9
		c-0.4,0-0.8,0-1.2,0c0.3,0.3,0.6,0.7,0.9,1c2,2.1,2.3,2.8,2.3,4.4c0,1.7-1.1,3.1-3.9,3.1H1V44z"/>
	<path class="st0" d="M9.2,42.8c0-3,1.7-5.2,4.6-5.2c0.8,0,1.6,0,2.2,0v4.2h-1.6c-0.6,0-1,0.3-1,1c0,0.6,0.4,0.9,1,0.9H16v4.2
		c-0.2,0-1.7,0-2.1,0C11,47.9,9.2,45.7,9.2,42.8z"/>
	<path class="st0" d="M16.5,37.7h3.9v10.2h-3.9V37.7z M16.5,36.2h3.9v1h-3.9V36.2z"/>
	<path class="st0" d="M20.8,44h2.7c-1.9-1.3-2.7-2.2-2.7-3.5c0-2.2,2.1-2.8,4.3-2.8h2.4l0,3.9h-2.3c2.1,1.7,2.6,2.3,2.6,3.7
		c0,1.9-1.5,2.6-4.2,2.6h-2.8L20.8,44z"/>
	<path class="st0" d="M28,44h2.7c-1.9-1.3-2.7-2.2-2.7-3.5c0-2.2,2.1-2.8,4.3-2.8h2.4l0,3.9h-2.3c2.1,1.7,2.6,2.3,2.6,3.7
		c0,1.9-1.5,2.6-4.2,2.6h-2.8L28,44z"/>
	<path class="st0" d="M35.3,42.7c0-2.9,2-5.1,4.8-5.1c2.8,0,4.8,2.2,4.8,5.1c0,3.2-1.9,5.4-4.8,5.4S35.3,45.9,35.3,42.7z M40.1,44.2
		c0.6,0,0.9-0.6,0.9-1.4c0-0.8-0.3-1.3-0.9-1.3c-0.6,0-0.9,0.5-0.9,1.3C39.2,43.6,39.6,44.2,40.1,44.2z"/>
	<path class="st0" d="M45.3,37.7h6.1v3.8h-2.2v6.3h-3.9V37.7z"/>
	<path class="st0" d="M51.6,44h2.7c-1.9-1.3-2.7-2.2-2.7-3.5c0-2.2,2.1-2.8,4.3-2.8h2.4l0,3.9H56c2.1,1.7,2.6,2.3,2.6,3.7
		c0,1.9-1.5,2.6-4.2,2.6h-2.8L51.6,44z"/>
</g>
</svg>
